<!DOCTYPE svg PUBLIC "-//W3C//DTD SVG 1.1//EN" "http://www.w3.org/Graphics/SVG/1.1/DTD/svg11.dtd">
<!-- Uploaded to: SVG Repo, www.svgrepo.com, Transformed by: SVG Repo Mixer Tools -->
<svg fill="#f1d069" version="1.1" id="Layer_1" xmlns="http://www.w3.org/2000/svg" xmlns:xlink="http://www.w3.org/1999/xlink" viewBox="0 0 32 32" xml:space="preserve" width="800px" height="800px" stroke="#f1d069" stroke-width="0.00032">
<g id="SVGRepo_bgCarrier" stroke-width="0"/>
<g id="SVGRepo_tracerCarrier" stroke-linecap="round" stroke-linejoin="round"/>
<g id="SVGRepo_iconCarrier"> <g id="chart--bar_1_"> <path d="M31,31.36H1c-0.199,0-0.36-0.161-0.36-0.36V1h0.72v29.64h2.28V25c0-0.199,0.161-0.36,0.36-0.36h6 c0.199,0,0.36,0.161,0.36,0.36v5.64h2.28V15c0-0.199,0.161-0.36,0.36-0.36h6c0.199,0,0.36,0.161,0.36,0.36v15.64h2.279V3 c0-0.199,0.161-0.36,0.36-0.36h6c0.199,0,0.36,0.161,0.36,0.36v27.64H31V31.36z M22.36,30.64h5.279V3.36H22.36V30.64z M13.36,30.64 h5.28V15.36h-5.28C13.36,15.36,13.36,30.64,13.36,30.64z M4.36,30.64h5.28v-5.28H4.36V30.64z"/> </g> <rect id="_Transparent_Rectangle" style="fill:none;" width="32" height="32"/> </g>
</svg>